<svg xmlns="http://www.w3.org/2000/svg" width="61.63" height="61.631" viewBox="0 0 61.63 61.631">
  <g id="cookie" transform="translate(-0.002)">
    <path id="Path_9" data-name="Path 9" d="M60.066,34.688a9.728,9.728,0,0,1-1.415.1,9.939,9.939,0,0,1-9.46-6.9,1.96,1.96,0,0,0-1.484-1.345A15.894,15.894,0,0,1,37.46,2.126,1,1,0,0,0,36.819.588a30.817,30.817,0,1,0,24.4,35.21A.993.993,0,0,0,60.066,34.688Z" transform="translate(0)" fill="#f5b97d"/>
    <g id="Group_3" data-name="Group 3" transform="translate(12.925 16.899)">
      <circle id="Ellipse_1" data-name="Ellipse 1" cx="3.976" cy="3.976" r="3.976" fill="#cd916e"/>
      <circle id="Ellipse_2" data-name="Ellipse 2" cx="2.982" cy="2.982" r="2.982" transform="translate(2.981 20.874)" fill="#cd916e"/>
    </g>
    <path id="Path_10" data-name="Path 10" d="M390.117,309.525a.994.994,0,0,1-.89-.549l-.994-1.988a.994.994,0,1,1,1.778-.889l.994,1.988a.994.994,0,0,1-.888,1.439Z" transform="translate(-341.406 -268.769)" fill="#a06e50"/>
    <g id="Group_4" data-name="Group 4" transform="translate(8.948 8.946)">
      <path id="Path_11" data-name="Path 11" d="M306.542,267.243a.994.994,0,0,1-.446-1.883l1.988-.994a.994.994,0,0,1,.889,1.779l-1.988.994A1,1,0,0,1,306.542,267.243Z" transform="translate(-277.714 -241.398)" fill="#b67f5f"/>
      <path id="Path_12" data-name="Path 12" d="M76.311,243.463a.994.994,0,0,1-.89-.549l-.994-1.988a.994.994,0,1,1,1.779-.889l.994,1.988a.994.994,0,0,1-.888,1.439Z" transform="translate(-74.322 -219.606)" fill="#b67f5f"/>
      <path id="Path_13" data-name="Path 13" d="M190.93,399.369a.994.994,0,0,1-.445-1.883l1.988-.994a.994.994,0,1,1,.889,1.778l-1.988.994A1,1,0,0,1,190.93,399.369Z" transform="translate(-176.018 -357.619)" fill="#b67f5f"/>
      <path id="Path_14" data-name="Path 14" d="M200.184,77.306a.991.991,0,0,1-.7-.291l-.994-.994a.994.994,0,0,1,1.406-1.406l.994.994a.994.994,0,0,1-.7,1.7Z" transform="translate(-183.285 -74.324)" fill="#b67f5f"/>
    </g>
    <g id="Group_5" data-name="Group 5" transform="translate(21.871 14.911)">
      <path id="Path_15" data-name="Path 15" d="M183.668,267.241a.991.991,0,0,1-.7-.291l-.994-.994a.994.994,0,0,1,1.406-1.406l.994.994a.994.994,0,0,1-.7,1.7Z" transform="translate(-181.679 -247.36)" fill="#a06e50"/>
      <path id="Path_16" data-name="Path 16" d="M281.77,440.66a.993.993,0,0,1-.994-.994v-.994a.994.994,0,1,1,1.988,0v.994A.993.993,0,0,1,281.77,440.66Z" transform="translate(-268.848 -399.904)" fill="#a06e50"/>
      <path id="Path_17" data-name="Path 17" d="M232.222,126.855a.994.994,0,0,1-.7-1.7l.994-.994a.994.994,0,0,1,1.406,1.406l-.994.994A.991.991,0,0,1,232.222,126.855Z" transform="translate(-225.263 -123.872)" fill="#a06e50"/>
    </g>
    <g id="Group_6" data-name="Group 6" transform="translate(43.292 4.62)">
      <path id="Path_18" data-name="Path 18" d="M359.961,41.816l-.285,1.711a2.982,2.982,0,0,0,1.894,3.283l2.525.947a2.982,2.982,0,0,0,3.94-2.069l.9-3.6a2.982,2.982,0,0,0-3.75-3.58l-3.14.942A2.982,2.982,0,0,0,359.961,41.816Z" transform="translate(-359.635 -38.379)" fill="#f5b97d"/>
      <path id="Path_19" data-name="Path 19" d="M429.131,155.37l-1.2.6a1.988,1.988,0,0,0-.938,2.561l.966,2.254a1.988,1.988,0,0,0,3.355.49l1.554-1.865a1.988,1.988,0,0,0-.334-2.863l-1.319-.989A1.989,1.989,0,0,0,429.131,155.37Z" transform="translate(-418.743 -141.103)" fill="#f5b97d"/>
      <circle id="Ellipse_3" data-name="Ellipse 3" cx="1.988" cy="1.988" r="1.988" transform="translate(14.364 6.315)" fill="#f5b97d"/>
    </g>
    <g id="Group_7" data-name="Group 7" transform="translate(0.002 5.551)">
      <path id="Path_20" data-name="Path 20" d="M34.545,110.82A30.816,30.816,0,0,1,10.971,60.158a30.817,30.817,0,1,0,43.411,43.436A30.677,30.677,0,0,1,34.545,110.82Z" transform="translate(-0.002 -58.468)" fill="#e3aa75"/>
      <path id="Path_21" data-name="Path 21" d="M364.537,52.257a3.725,3.725,0,0,1-2.366-4.1l.34-2.039-.465.14a2.983,2.983,0,0,0-2.085,2.366l-.285,1.711a2.982,2.982,0,0,0,1.894,3.283l2.525.947a2.982,2.982,0,0,0,3.532-1.141Z" transform="translate(-316.345 -46.118)" fill="#e3aa75"/>
      <path id="Path_22" data-name="Path 22" d="M482.076,94.71a1.99,1.99,0,0,1-1.849-2.719,1.989,1.989,0,1,0,2.581,2.581A1.993,1.993,0,0,1,482.076,94.71Z" transform="translate(-421.316 -86.469)" fill="#e3aa75"/>
      <path id="Path_23" data-name="Path 23" d="M430.078,161.928l-1.094-2.552a2.233,2.233,0,0,1-.1-1.46l-.957.478a1.988,1.988,0,0,0-.938,2.561l.966,2.254a1.988,1.988,0,0,0,3.355.49l.386-.463A2.219,2.219,0,0,1,430.078,161.928Z" transform="translate(-375.452 -144.459)" fill="#e3aa75"/>
    </g>
    <g id="Group_8" data-name="Group 8" transform="translate(12.925 17.213)">
      <path id="Path_24" data-name="Path 24" d="M113.446,148.52a3.978,3.978,0,0,1-3.662-5.526A3.977,3.977,0,1,0,115,148.206,3.963,3.963,0,0,1,113.446,148.52Z" transform="translate(-107.357 -142.994)" fill="#b67f5f"/>
      <path id="Path_25" data-name="Path 25" d="M136.667,320.018a2.979,2.979,0,0,1-2.736-4.165,2.981,2.981,0,1,0,3.918,3.918A2.969,2.969,0,0,1,136.667,320.018Z" transform="translate(-129.15 -295.046)" fill="#b67f5f"/>
    </g>
    <circle id="Ellipse_4" data-name="Ellipse 4" cx="3.976" cy="3.976" r="3.976" transform="translate(33.8 39.763)" fill="#cd916e"/>
    <path id="Path_26" data-name="Path 26" d="M286.865,338.455a3.978,3.978,0,0,1-3.662-5.526,3.977,3.977,0,1,0,5.212,5.213A3.963,3.963,0,0,1,286.865,338.455Z" transform="translate(-246.977 -292.854)" fill="#b67f5f"/>
    <circle id="Ellipse_5" data-name="Ellipse 5" cx="1.988" cy="1.988" r="1.988" transform="translate(27.794 23.857)" fill="#cd916e"/>
    <path id="Path_27" data-name="Path 27" d="M233.928,202.26A1.989,1.989,0,0,1,232.1,199.5,1.988,1.988,0,1,0,234.7,202.1,1.983,1.983,0,0,1,233.928,202.26Z" transform="translate(-203.09 -175.483)" fill="#b67f5f"/>
  </g>
</svg>
