<svg xmlns="http://www.w3.org/2000/svg" width="36.015" height="24.933" viewBox="0 0 36.015 24.933">
  <g id="Icon_ionic-ios-mail" data-name="Icon ionic-ios-mail" transform="translate(-3.375 -7.875)">
    <path id="Path_7" data-name="Path 7" d="M39.1,10.367,29.78,19.855a.167.167,0,0,0,0,.242L36.3,27.041a1.123,1.123,0,0,1,0,1.593,1.129,1.129,0,0,1-1.593,0l-6.493-6.917a.178.178,0,0,0-.251,0l-1.584,1.61a6.97,6.97,0,0,1-4.969,2.1,7.11,7.11,0,0,1-5.073-2.156l-1.524-1.55a.178.178,0,0,0-.251,0L8.067,28.634a1.129,1.129,0,0,1-1.593,0,1.123,1.123,0,0,1,0-1.593L12.993,20.1a.184.184,0,0,0,0-.242L3.669,10.367a.171.171,0,0,0-.294.121V29.474a2.778,2.778,0,0,0,2.77,2.77H36.619a2.778,2.778,0,0,0,2.77-2.77V10.488A.173.173,0,0,0,39.1,10.367Z" transform="translate(0 0.564)" fill="#fff"/>
    <path id="Path_8" data-name="Path 8" d="M21.186,23.727a4.707,4.707,0,0,0,3.385-1.42L38.154,8.481a2.721,2.721,0,0,0-1.714-.606H5.94a2.7,2.7,0,0,0-1.714.606L17.809,22.307A4.707,4.707,0,0,0,21.186,23.727Z" transform="translate(0.197)" fill="#fff"/>
  </g>
</svg>
