<svg xmlns="http://www.w3.org/2000/svg" width="62.419" height="46.5" viewBox="0 0 62.419 46.5">
  <g id="Logo_svg" data-name="Logo svg" transform="translate(-6.468 0)">
    <path id="Path_1" data-name="Path 1" d="M281.869.205a1.531,1.531,0,0,0-2.091.56L263.072,29.7a1.531,1.531,0,1,0,2.652,1.531l13.854-24V44.31a1.531,1.531,0,1,0,3.062,0V1.678q0-.062,0-.123A1.531,1.531,0,0,0,281.869.205Z" transform="translate(-236.836 0)" fill="#fff"/>
    <rect id="Rectangle_2" data-name="Rectangle 2" width="3.062" height="22.832" rx="1.531" transform="matrix(-0.766, 0.643, -0.643, -0.766, 63.818, 44.532)" fill="#fff"/>
    <path id="Path_2" data-name="Path 2" d="M9.33.766a1.531,1.531,0,0,0-2.857.788q0,.039,0,.079,0,.022,0,.045V44.31a1.531,1.531,0,1,0,3.062,0V7.236L22.3,29.347a1.531,1.531,0,0,0,2.091.56l.038-.022a1.525,1.525,0,0,0,.527-.541L40.567,2.3A1.531,1.531,0,1,0,37.916.766L23.623,25.522Z" transform="translate(0 0)" fill="#fff"/>
    <path id="Path_3" data-name="Path 3" d="M605.756,1.92a1.531,1.531,0,0,0-1.531,1.531V41.919L592.044,27.4A1.531,1.531,0,0,0,589.7,29.37L604.576,47.1a1.546,1.546,0,0,0,2.711-1.017V3.451A1.531,1.531,0,0,0,605.756,1.92Z" transform="translate(-538.401 -1.774)" fill="#fff"/>
  </g>
</svg>
