<svg xmlns="http://www.w3.org/2000/svg" width="630.615" height="366.488" viewBox="0 0 630.615 366.488">
  <g id="undraw_Code_thinking_re_gka2_1_" data-name="undraw_Code_thinking_re_gka2 (1)" transform="translate(-279.484 0)">
    <path id="Path_43" data-name="Path 43" d="M956.426,231.659H411.551a15,15,0,0,0-15,15V550.248a15,15,0,0,0,15,15H956.426a15,15,0,0,0,15-15V246.657a15,15,0,0,0-15-15Z" transform="translate(-94.221 -231.659)" fill="#3f3d56"/>
    <rect id="Rectangle_18" data-name="Rectangle 18" width="534.652" height="301.599" transform="translate(322.439 26.504)" fill="#fff"/>
    <circle id="Ellipse_13" data-name="Ellipse 13" cx="5.484" cy="5.484" r="5.484" transform="translate(583.824 7.311)" fill="#fff"/>
    <path id="Path_44" data-name="Path 44" d="M711.641,332.7H329.89V31.1Z" transform="translate(-7.451 -4.597)" fill="#f2f2f2"/>
    <circle id="Ellipse_14" data-name="Ellipse 14" cx="51.392" cy="51.392" r="51.392" transform="translate(354.704 202.749)" fill="#3a3d98"/>
    <path id="Path_45" data-name="Path 45" d="M520.652,553.033a63.927,63.927,0,1,1,63.927-63.927A63.927,63.927,0,0,1,520.652,553.033Zm0-127.019a63.092,63.092,0,1,0,63.091,63.091,63.092,63.092,0,0,0-63.091-63.091Z" transform="translate(-103.116 -260.265)" fill="#3f3d56"/>
    <rect id="Rectangle_19" data-name="Rectangle 19" width="49.942" height="10.436" transform="translate(683.379 183.194)" fill="#3f3d56"/>
    <rect id="Rectangle_20" data-name="Rectangle 20" width="144.442" height="4.472" transform="translate(636.129 126.657)" fill="#3f3d56"/>
    <rect id="Rectangle_21" data-name="Rectangle 21" width="144.442" height="4.472" transform="translate(636.129 144.229)" fill="#3f3d56"/>
    <rect id="Rectangle_22" data-name="Rectangle 22" width="144.442" height="4.472" transform="translate(636.129 161.801)" fill="#3f3d56"/>
    <rect id="Rectangle_23" data-name="Rectangle 23" width="20.871" height="20.871" transform="translate(798.393 44.553)" fill="#3a3d98"/>
    <path id="Path_46" data-name="Path 46" d="M1010.124,315.408H984.78V290.064h25.344Zm-24.242-1.1h23.14v-23.14H985.884Z" transform="translate(-181.171 -240.293)" fill="#ccc"/>
    <path id="Path_47" data-name="Path 47" d="M982.468,609.458H930.29V605.7a.745.745,0,0,0-.745-.745h-17.89a.745.745,0,0,0-.745.745v3.76H899.727V605.7a.745.745,0,0,0-.745-.745h-17.89a.745.745,0,0,0-.745.745h0v3.76H869.166V605.7a.745.745,0,0,0-.745-.745H850.53a.745.745,0,0,0-.745.745h0v3.76H838.6V605.7a.745.745,0,0,0-.745-.745H819.969a.745.745,0,0,0-.745.745v3.76H808.042V605.7a.745.745,0,0,0-.745-.745H789.407a.745.745,0,0,0-.745.745h0v3.76H777.481V605.7a.746.746,0,0,0-.745-.745h-17.89a.745.745,0,0,0-.745.745h0v3.76H746.919V605.7a.745.745,0,0,0-.745-.745H606.036a.745.745,0,0,0-.745.745h0v3.76H594.11V605.7a.745.745,0,0,0-.746-.745H575.475a.745.745,0,0,0-.745.745h0v3.76H563.549V605.7a.746.746,0,0,0-.745-.745h-17.89a.745.745,0,0,0-.745.745h0v3.76H532.986V605.7a.745.745,0,0,0-.745-.745H514.352a.746.746,0,0,0-.745.745h0v3.76H502.425V605.7a.745.745,0,0,0-.745-.745H483.79a.745.745,0,0,0-.745.745h0v3.76H471.863V605.7a.745.745,0,0,0-.745-.745h-17.89a.745.745,0,0,0-.745.745v3.76H441.3V605.7a.745.745,0,0,0-.745-.745h-17.89a.745.745,0,0,0-.745.745h0v3.76H387.632a17.89,17.89,0,0,0-17.89,17.89v8.089a17.89,17.89,0,0,0,17.89,17.889H982.468a17.89,17.89,0,0,0,17.89-17.89v-8.089a17.89,17.89,0,0,0-17.889-17.89Z" transform="translate(-90.258 -286.839)" fill="#3f3d56"/>
  </g>
</svg>
