<svg xmlns="http://www.w3.org/2000/svg" width="32.566" height="31.752" viewBox="0 0 32.566 31.752">
  <path id="Icon_awesome-github" data-name="Icon awesome-github" d="M10.892,26.129c0,.131-.151.236-.341.236-.217.02-.368-.085-.368-.236,0-.131.151-.236.341-.236C10.722,25.873,10.892,25.978,10.892,26.129Zm-2.042-.3c-.046.131.085.282.282.322a.308.308,0,0,0,.407-.131c.039-.131-.085-.282-.282-.341A.337.337,0,0,0,8.85,25.834Zm2.9-.112c-.19.046-.322.171-.3.322.02.131.19.217.387.171s.322-.171.3-.3S11.943,25.7,11.753,25.722ZM16.073.563A15.744,15.744,0,0,0,0,16.583,16.461,16.461,0,0,0,11.129,32.288c.84.151,1.136-.368,1.136-.794,0-.407-.02-2.653-.02-4.031,0,0-4.6.985-5.561-1.957,0,0-.748-1.911-1.825-2.4,0,0-1.5-1.031.105-1.011A3.466,3.466,0,0,1,7.5,23.785a3.471,3.471,0,0,0,4.786,1.372,3.649,3.649,0,0,1,1.051-2.213c-3.67-.407-7.373-.939-7.373-7.255a4.976,4.976,0,0,1,1.549-3.867,6.2,6.2,0,0,1,.171-4.458c1.372-.427,4.53,1.773,4.53,1.773a15.511,15.511,0,0,1,8.246,0s3.158-2.206,4.53-1.773a6.2,6.2,0,0,1,.171,4.458,5.1,5.1,0,0,1,1.694,3.867c0,6.336-3.867,6.841-7.537,7.255a3.883,3.883,0,0,1,1.116,3.046c0,2.213-.02,4.95-.02,5.489,0,.427.3.945,1.136.794A16.309,16.309,0,0,0,32.566,16.583C32.566,7.476,25.179.563,16.073.563ZM6.382,23.207c-.085.066-.066.217.046.341.105.105.256.151.341.066.085-.066.066-.217-.046-.341C6.618,23.168,6.467,23.122,6.382,23.207Zm-.709-.532c-.046.085.02.19.151.256a.2.2,0,0,0,.282-.046c.046-.085-.02-.19-.151-.256C5.824,22.59,5.719,22.61,5.673,22.676ZM7.8,25.013c-.105.085-.066.282.085.407.151.151.341.171.427.066.085-.085.046-.282-.085-.407C8.082,24.928,7.885,24.908,7.8,25.013Zm-.748-.965c-.105.066-.105.236,0,.387s.282.217.368.151a.3.3,0,0,0,0-.407C7.327,24.028,7.157,23.962,7.052,24.048Z" transform="translate(0 -0.563)" fill="#afafaf"/>
</svg>
